<svg width="100" height="100" viewBox="0 0 100 100" fill="none" xmlns="http://www.w3.org/2000/svg">
<path d="M95.3126 45.3164H64.0626V32.8174C64.0609 32.09 63.8907 31.3729 63.5654 30.7222C63.2401 30.0716 62.7685 29.5052 62.1876 29.0674L55.9376 24.3799C55.2412 23.8576 54.413 23.5395 53.546 23.4613C52.679 23.3831 51.8074 23.5479 51.0288 23.9373C50.2501 24.3266 49.5953 24.925 49.1376 25.6655C48.68 26.406 48.4376 27.2594 48.4376 28.1299V46.7041C43.896 40.1896 36.4844 35.9375 28.1251 35.9375C14.3399 35.9375 3.12507 47.5016 3.12507 61.7158C3.11273 67.0092 4.70132 72.1826 7.6823 76.5568H4.68757C4.27317 76.5568 3.87574 76.7215 3.58272 77.0145C3.28969 77.3075 3.12507 77.7049 3.12507 78.1193V87.4943C3.12647 88.7371 3.62078 89.9286 4.49955 90.8074C5.37832 91.6861 6.5698 92.1804 7.81257 92.1818H95.3126C95.727 92.1818 96.1244 92.0172 96.4174 91.7242C96.7105 91.4312 96.8751 91.0337 96.8751 90.6193V46.8789C96.8751 46.4645 96.7105 46.0671 96.4174 45.7741C96.1244 45.481 95.727 45.3164 95.3126 45.3164ZM93.7501 48.4414V51.5664H64.0626V48.4414H93.7501ZM68.7501 60.9318C69.3681 60.9318 69.9723 61.1151 70.4862 61.4585C71.0001 61.8019 71.4007 62.2899 71.6372 62.8609C71.8737 63.432 71.9356 64.0603 71.815 64.6665C71.6944 65.2727 71.3968 65.8295 70.9598 66.2665C70.5227 66.7036 69.9659 67.0012 69.3597 67.1218C68.7535 67.2424 68.1252 67.1805 67.5542 66.944C66.9832 66.7074 66.4951 66.3069 66.1517 65.793C65.8083 65.2791 65.6251 64.6749 65.6251 64.0568C65.626 63.2283 65.9555 62.434 66.5414 61.8482C67.1272 61.2623 67.9216 60.9328 68.7501 60.9318V60.9318ZM51.5626 76.5568H48.5678C51.1012 72.8439 52.6351 68.5407 53.0216 64.0625L62.5001 64.06V87.5C62.4997 87.909 62.3389 88.3016 62.0524 88.5934C61.7658 88.8852 61.3762 89.053 60.9673 89.0607H52.8546C53.0337 88.5579 53.1252 88.0281 53.1251 87.4943V78.1193C53.1251 77.7049 52.9605 77.3075 52.6674 77.0145C52.3744 76.7215 51.977 76.5568 51.5626 76.5568ZM61.2801 57.8098L62.0614 60.9348L53.1128 60.9375C53.083 59.8906 52.9914 58.8463 52.8384 57.8102L61.2801 57.8098ZM52.426 26.7332C52.6847 26.6001 52.976 26.5433 53.2657 26.5694C53.5555 26.5955 53.8318 26.7035 54.0626 26.8807L60.3126 31.5682C60.5062 31.7141 60.6634 31.9029 60.7719 32.1198C60.8803 32.3366 60.937 32.5757 60.9376 32.8182V42.1867H51.5626V28.1305C51.5593 27.8397 51.6387 27.5539 51.7916 27.3065C51.9444 27.0592 52.1645 26.8603 52.426 26.7332V26.7332ZM51.5626 45.3109H60.9376V54.6848H52.1798C51.9986 54.0272 51.7929 53.3807 51.5626 52.7451V45.3109ZM6.25007 61.7158C6.25007 49.2248 16.0632 39.0625 28.1251 39.0625C40.187 39.0625 50.0001 49.2248 50.0001 61.7158C50.0182 67.1381 48.1239 72.3932 44.6503 76.5568H38.4766C41.836 74.3323 44.3895 71.0847 45.7587 67.2953C47.1279 63.5059 47.24 59.3762 46.0784 55.5181C44.9168 51.66 42.5433 48.2787 39.3095 45.8751C36.0757 43.4716 32.1537 42.1737 28.1245 42.1737C24.0953 42.1737 20.1733 43.4716 16.9395 45.8751C13.7057 48.2787 11.3322 51.66 10.1706 55.5181C9.00899 59.3762 9.12109 63.5059 10.4903 67.2953C11.8595 71.0847 14.4129 74.3323 17.7723 76.5568H11.5999C8.12628 72.3932 6.23196 67.1381 6.25007 61.7158V61.7158ZM23.4376 79.6818H32.8126V81.2443C32.8121 81.6586 32.6473 82.0558 32.3544 82.3487C32.0615 82.6416 31.6643 82.8064 31.2501 82.8068H25.0001C24.5858 82.8064 24.1887 82.6416 23.8957 82.3487C23.6028 82.0558 23.438 81.6586 23.4376 81.2443V79.6818ZM28.1251 76.5568C25.0347 76.5568 22.0138 75.6404 19.4443 73.9235C16.8748 72.2067 14.8721 69.7664 13.6895 66.9113C12.5068 64.0562 12.1974 60.9145 12.8003 57.8835C13.4032 54.8526 14.8913 52.0685 17.0765 49.8833C19.2617 47.6981 22.0458 46.21 25.0768 45.6071C28.1077 45.0042 31.2494 45.3136 34.1045 46.4962C36.9596 47.6788 39.3999 49.6815 41.1168 52.2511C42.8337 54.8206 43.7501 57.8415 43.7501 60.9318C43.7454 65.0744 42.0977 69.0459 39.1684 71.9752C36.2392 74.9044 32.2676 76.5521 28.1251 76.5568ZM6.25007 87.4943V79.6818H20.3126V81.2443C20.314 82.4871 20.8083 83.6786 21.6871 84.5574C22.5658 85.4361 23.7573 85.9304 25.0001 85.9318H31.2501C32.4928 85.9304 33.6843 85.4361 34.5631 84.5574C35.4419 83.6786 35.9362 82.4871 35.9376 81.2443V79.6818H50.0001V87.4943C49.9996 87.9086 49.8348 88.3058 49.5419 88.5987C49.249 88.8916 48.8518 89.0564 48.4376 89.0568H7.81257C7.39831 89.0564 7.00116 88.8916 6.70823 88.5987C6.41531 88.3058 6.25054 87.9086 6.25007 87.4943V87.4943ZM65.3571 89.0605C65.5346 88.5594 65.6253 88.0316 65.6251 87.5V85.091C66.5751 85.6409 67.6532 85.9309 68.7509 85.9318C69.8486 85.9327 70.9271 85.6446 71.8781 85.0962C72.829 84.5479 73.6188 83.7588 74.1679 82.8083C74.717 81.8579 75.0061 80.7795 75.0061 79.6818C75.0061 78.5841 74.717 77.5058 74.1679 76.5553C73.6188 75.6049 72.829 74.8158 71.8781 74.2674C70.9271 73.7191 69.8486 73.4309 68.7509 73.4318C67.6532 73.4328 66.5751 73.7228 65.6251 74.2727V69.466C66.6099 70.036 67.7316 70.3263 68.8693 70.3057C70.007 70.285 71.1175 69.9542 72.0809 69.3488C73.0444 68.7434 73.8243 67.8865 74.3366 66.8705C74.8489 65.8545 75.0741 64.7178 74.9879 63.5832C74.9017 62.4486 74.5074 61.3591 73.8475 60.4321C73.1876 59.5051 72.2872 58.7759 71.2433 58.323C70.1994 57.8702 69.0517 57.7109 67.924 57.8623C66.7962 58.0138 65.7312 58.4702 64.8438 59.1824L64.0626 56.0547V54.6906H93.7501V89.057L65.3571 89.0605ZM65.6251 79.6818C65.6251 79.0638 65.8083 78.4596 66.1517 77.9457C66.4951 77.4318 66.9832 77.0312 67.5542 76.7947C68.1252 76.5582 68.7535 76.4963 69.3597 76.6169C69.9659 76.7375 70.5227 77.0351 70.9598 77.4721C71.3968 77.9092 71.6944 78.466 71.815 79.0722C71.9356 79.6784 71.8737 80.3067 71.6372 80.8777C71.4007 81.4487 71.0001 81.9368 70.4862 82.2802C69.9723 82.6236 69.3681 82.8068 68.7501 82.8068C67.9216 82.8059 67.1272 82.4764 66.5414 81.8905C65.9555 81.3047 65.626 80.5104 65.6251 79.6818Z" fill="black"/>
<path d="M84.375 57.8125C83.1389 57.8125 81.9305 58.1791 80.9027 58.8658C79.8749 59.5526 79.0738 60.5287 78.6008 61.6707C78.1277 62.8128 78.0039 64.0694 78.2451 65.2818C78.4863 66.4942 79.0815 67.6078 79.9556 68.4819C80.8297 69.356 81.9433 69.9512 83.1557 70.1924C84.3681 70.4336 85.6247 70.3098 86.7668 69.8367C87.9088 69.3637 88.8849 68.5626 89.5717 67.5348C90.2585 66.507 90.625 65.2986 90.625 64.0625C90.6232 62.4055 89.9641 60.8168 88.7924 59.6451C87.6207 58.4734 86.032 57.8144 84.375 57.8125V57.8125ZM84.375 67.1875C83.7569 67.1875 83.1528 67.0042 82.6388 66.6608C82.1249 66.3175 81.7244 65.8294 81.4879 65.2584C81.2514 64.6874 81.1895 64.059 81.3101 63.4528C81.4306 62.8466 81.7283 62.2898 82.1653 61.8528C82.6023 61.4157 83.1592 61.1181 83.7653 60.9975C84.3715 60.877 84.9999 60.9389 85.5709 61.1754C86.1419 61.4119 86.63 61.8124 86.9734 62.3263C87.3167 62.8402 87.5 63.4444 87.5 64.0625C87.499 64.891 87.1695 65.6853 86.5836 66.2711C85.9978 66.857 85.2035 67.1865 84.375 67.1875V67.1875Z" fill="black"/>
<path d="M84.375 73.4375C83.1389 73.4375 81.9305 73.8041 80.9027 74.4908C79.8749 75.1776 79.0738 76.1537 78.6008 77.2957C78.1277 78.4378 78.0039 79.6944 78.2451 80.9068C78.4863 82.1192 79.0815 83.2328 79.9556 84.1069C80.8297 84.981 81.9433 85.5762 83.1557 85.8174C84.3681 86.0586 85.6247 85.9348 86.7668 85.4617C87.9088 84.9887 88.8849 84.1876 89.5717 83.1598C90.2585 82.132 90.625 80.9236 90.625 79.6875C90.6232 78.0305 89.9641 76.4418 88.7924 75.2701C87.6207 74.0984 86.032 73.4394 84.375 73.4375V73.4375ZM84.375 82.8125C83.7569 82.8125 83.1528 82.6292 82.6388 82.2858C82.1249 81.9425 81.7244 81.4544 81.4879 80.8834C81.2514 80.3124 81.1895 79.684 81.3101 79.0778C81.4306 78.4716 81.7283 77.9148 82.1653 77.4778C82.6023 77.0407 83.1592 76.7431 83.7653 76.6225C84.3715 76.502 84.9999 76.5639 85.5709 76.8004C86.1419 77.0369 86.63 77.4374 86.9734 77.9513C87.3167 78.4652 87.5 79.0694 87.5 79.6875C87.499 80.516 87.1695 81.3103 86.5836 81.8961C85.9978 82.482 85.2035 82.8115 84.375 82.8125V82.8125Z" fill="black"/>
</svg>
