<svg id="Capa_1" enable-background="new 0 0 512 512" height="512" viewBox="0 0 512 512" width="512" xmlns="http://www.w3.org/2000/svg"><g><path d="m184.668 58.934c-4.142 0-7.5 3.357-7.5 7.5v7.115c0 4.143 3.358 7.5 7.5 7.5s7.5-3.357 7.5-7.5v-7.115c0-4.142-3.358-7.5-7.5-7.5z"/><path d="m462.784 329.931v-22.978c0-87.495-16.623-154.746-49.407-199.884-15.595-21.473-34.865-37.832-57.274-48.622-21.598-10.398-46.202-15.671-73.133-15.671h-38.278v-3.866c0-7.48-6.098-13.566-13.594-13.566h-71.771c-7.48 0-13.566 6.086-13.566 13.566v60.758h-14.241c-6.949 0-12.602 5.666-12.602 12.631v35.87h-2.535c-6.121 0-11.1 4.979-11.1 11.101v19.134c0 .278.006.548.014.81-.112.067-.237.141-.376.22-56.688 32.421-91.903 93.08-91.903 158.306 0 48.652 18.951 94.397 53.361 128.808l.572.572c1.835 1.833 3.733 3.729 3.961 4.288.244.599.244 3.393.243 6.094v19.602c0 8.215 6.683 14.898 14.898 14.898h218.319c8.215 0 14.898-6.684 14.898-14.898v-19.487c0-2.739-.001-5.572.248-6.187.225-.555 2.108-2.436 3.931-4.256l.626-.626c34.41-34.411 53.36-80.156 53.36-128.808 0-31.262-8.066-62.135-23.326-89.281-2.031-3.611-6.603-4.893-10.213-2.863-3.611 2.03-4.893 6.603-2.863 10.213 14.002 24.908 21.402 53.239 21.402 81.931 0 44.645-17.391 86.625-48.968 118.203l-.619.618c-7.777 7.769-8.579 9.736-8.578 21.058v19.381h-218.115v-19.497c.002-11.241-.802-13.204-8.603-20.997l-.567-.566c-31.577-31.577-48.967-73.556-48.967-118.202 0-59.859 32.321-115.529 84.34-145.28 7.341-4.184 8.161-8.826 7.953-13.221-.012-.263-.028-.54-.028-.835v-15.234h149.887v15.234c0 .298-.017.576-.03.841-.219 4.393.591 9.033 7.921 13.212 16.152 9.226 30.584 21.02 42.895 35.057 2.732 3.113 7.47 3.424 10.584.693s3.425-7.47.693-10.584c-13.41-15.289-29.134-28.139-46.739-38.194-.124-.071-.237-.137-.34-.199.01-.267.016-.541.016-.825v-19.134c0-6.121-4.992-11.101-11.128-11.101h-2.506v-35.87c0-6.965-5.666-12.631-12.631-12.631h-14.213v-41.89h38.278c50.475 0 90.267 19.55 118.27 58.107 30.885 42.523 46.544 106.808 46.544 191.07v22.978c-20.532 3.568-36.197 21.503-36.197 43.041v58.366c0 24.096 19.602 43.698 43.697 43.698s43.697-19.602 43.697-43.698v-58.366c.001-21.538-15.665-39.473-36.197-43.042zm-275.071-215.264v33.501h-19.412v-33.501zm34.411 0v33.501h-19.412v-33.501zm-88.206 0h19.343.04v33.501h-19.383zm122.618 33.501h-19.412v-33.501h.068 19.344zm-95.775-48.501v-59.324h68.931v59.324zm323.221 331.671c0 15.824-12.874 28.698-28.697 28.698s-28.697-12.874-28.697-28.698v-58.366c0-15.824 12.874-28.698 28.697-28.698s28.697 12.874 28.697 28.698z"/><path d="m53.167 13.999 33.079 19.077c1.181.681 2.469 1.004 3.74 1.004 2.593 0 5.115-1.347 6.504-3.754 2.069-3.589.838-8.175-2.75-10.244l-33.079-19.077c-3.589-2.07-8.174-.838-10.244 2.75-2.069 3.589-.838 8.174 2.75 10.244z"/><path d="m86.247 85.845-33.079 19.077c-3.588 2.069-4.819 6.655-2.75 10.244 1.389 2.408 3.911 3.754 6.504 3.754 1.271 0 2.56-.323 3.74-1.004l33.079-19.077c3.588-2.069 4.819-6.655 2.75-10.244-2.071-3.589-6.655-4.818-10.244-2.75z"/><path d="m51.812 66.96h38.182c4.142 0 7.5-3.357 7.5-7.5s-3.358-7.5-7.5-7.5h-38.182c-4.142 0-7.5 3.357-7.5 7.5s3.358 7.5 7.5 7.5z"/><path d="m179.254 268.357h-76.647c-11.2 0-20.312 9.125-20.312 20.341v100.857c0 11.216 9.112 20.341 20.312 20.341h185.211c11.216 0 20.341-9.125 20.341-20.341v-100.857c0-11.216-9.125-20.341-20.341-20.341h-76.307c-4.142 0-7.5 3.357-7.5 7.5s3.358 7.5 7.5 7.5h76.307c2.896 0 5.341 2.446 5.341 5.341v100.857c0 2.895-2.445 5.341-5.341 5.341h-185.211c-2.929 0-5.312-2.396-5.312-5.341v-100.857c0-2.945 2.383-5.341 5.312-5.341h76.647c4.142 0 7.5-3.357 7.5-7.5 0-4.142-3.358-7.5-7.5-7.5z"/><path d="m261.173 311.642h-131.892c-4.142 0-7.5 3.357-7.5 7.5s3.358 7.5 7.5 7.5h131.892c4.143 0 7.5-3.357 7.5-7.5 0-4.142-3.358-7.5-7.5-7.5z"/><path d="m261.173 351.639h-131.892c-4.142 0-7.5 3.357-7.5 7.5s3.358 7.5 7.5 7.5h131.892c4.143 0 7.5-3.357 7.5-7.5 0-4.142-3.358-7.5-7.5-7.5z"/></g></svg>