<?xml version="1.0"?>
<svg xmlns="http://www.w3.org/2000/svg" viewBox="0 0 64 64" width="512" height="512"><g id="outline"><path d="M14,62a1,1,0,0,0,.555-.168C14.7,61.738,18,59.5,18,56V27.1l2.98-15.9a6.46,6.46,0,0,0-3.425-7.028l-3-2a1,1,0,0,0-1.11,0L10.5,4.132a6.483,6.483,0,0,0-3.49,7.033L10,27.1V56c0,3.495,3.305,5.738,3.445,5.832A1,1,0,0,0,14,62Zm2-32H12V28h4ZM9.847,16,8.98,10.8c-.4-2,.518-3.794,2.575-4.972L14,4.2l2.5,1.666a4.531,4.531,0,0,1,2.51,4.967L18.153,16H16.18l.806-4.835-1.972-.33L14.153,16h-.306l-.861-5.165-1.972.33L11.82,16Zm.373,2h7.56l-1.6,8H11.819ZM12,56V55h2V53H12V32h4V49H14v2h2v5a5.35,5.35,0,0,1-2,3.724A5.352,5.352,0,0,1,12,56Z"/><path d="M26,6H23a1,1,0,0,0-.98,1.2l1.99,9.95.99,9.9V56c0,3.495,3.305,5.738,3.445,5.832a1,1,0,0,0,1.11,0C29.7,61.738,33,59.5,33,56V27.051l.986-9.861,1.976-6.915a1,1,0,0,0-.13-.83C35.738,9.305,33.449,6,26,6Zm5,36H29v2h2V56a5.35,5.35,0,0,1-2,3.724A5.352,5.352,0,0,1,27,56V40h2V38H27V32h4Zm0-12H27V28h4Zm.095-4h-4.19l-.8-8H31.9Zm1.151-10H30.477l1.452-3.628-1.858-.744L29,14.308l-1.071-2.68-1.858.744L27.523,16h-1.7l-1.6-8H26c4.945,0,7.165,1.582,7.887,2.256Z"/><path d="M39,57a5.317,5.317,0,0,0,2.553,4.9,1,1,0,0,0,.894,0A5.317,5.317,0,0,0,45,57V27.051L46,17.1l1-10a1,1,0,0,0-.1-.547A5.318,5.318,0,0,0,42,4a5.318,5.318,0,0,0-4.9,2.553,1,1,0,0,0-.1.547l1,10L39,27.051Zm4,0a3.755,3.755,0,0,1-1,2.749A3.746,3.746,0,0,1,41,57V32h2Zm0-27H41V28h2Zm.095-4h-2.19l-.8-8H43.9ZM42,6a3.589,3.589,0,0,1,2.97,1.249L44.1,16h-4.19L39.03,7.25A3.588,3.588,0,0,1,42,6Z"/><path d="M54,8a4.7,4.7,0,0,0-3.9,2.553A1,1,0,0,0,50,11v6c0,.018,0,.083.005.1L51,27.051V57a5.317,5.317,0,0,0,2.553,4.9,1,1,0,0,0,.894,0A5.317,5.317,0,0,0,57,57V27.051L58,17.1c0-.017.005-.082.005-.1V11a1,1,0,0,0-.1-.447A4.7,4.7,0,0,0,54,8Zm1,49a3.755,3.755,0,0,1-1,2.749A3.746,3.746,0,0,1,53,57V32h2Zm0-27H53V28h2Zm.095-4h-2.19l-.8-8H55.9ZM56,16H52V11.273a2.208,2.208,0,0,1,4,0Z"/></g></svg>
