<svg height="512" viewBox="0 0 64 64" width="512" xmlns="http://www.w3.org/2000/svg"><g id="outline"><path d="m31 17a1 1 0 0 0 -1-1h-8a1 1 0 0 0 -1 1v7h-1a1 1 0 0 0 -1 1v36a1 1 0 0 0 1 1h12a1 1 0 0 0 1-1v-36a1 1 0 0 0 -1-1h-1zm-8 1h6v2h-6zm-2 8h10v2h-10zm0 30v-26h6v26zm8-26h2v26h-2zm2 30h-10v-2h10zm-8-36v-2h6v2z"/><path d="m23 52h2v2h-2z"/><path d="m23 48h2v2h-2z"/><path d="m37 33h-1a1 1 0 0 0 -1 1v27a1 1 0 0 0 1 1h8a1 1 0 0 0 1-1v-27a1 1 0 0 0 -1-1h-1v-18a1.978 1.978 0 0 0 -.278-1 1.978 1.978 0 0 0 .278-1v-6a4.01 4.01 0 0 0 -2.553-3.895l-2-1a1 1 0 0 0 -1.447.895v10a1.978 1.978 0 0 0 .278 1 1.978 1.978 0 0 0 -.278 1zm0 2h6v21h-6zm6 25h-6v-2h6zm-4-27v-18h2v18zm0-28.382.553.277a2.052 2.052 0 0 1 1.447 2.105v6h-2z"/><path d="m39 37h2v2h-2z"/><path d="m39 41h2v2h-2z"/></g></svg>