<svg width="100" height="100" viewBox="0 0 100 100" fill="none" xmlns="http://www.w3.org/2000/svg">
<path d="M21.875 96.875H78.125C79.3682 96.875 80.5605 96.3811 81.4396 95.5021C82.3186 94.623 82.8125 93.4307 82.8125 92.1875V7.8125C82.8125 6.5693 82.3186 5.37701 81.4396 4.49794C80.5605 3.61886 79.3682 3.125 78.125 3.125H21.875C20.6318 3.125 19.4395 3.61886 18.5604 4.49794C17.6814 5.37701 17.1875 6.5693 17.1875 7.8125V92.1875C17.1875 93.4307 17.6814 94.623 18.5604 95.5021C19.4395 96.3811 20.6318 96.875 21.875 96.875V96.875ZM79.6875 92.1875C79.6875 92.6019 79.5229 92.9993 79.2299 93.2924C78.9368 93.5854 78.5394 93.75 78.125 93.75H21.875C21.4606 93.75 21.0632 93.5854 20.7701 93.2924C20.4771 92.9993 20.3125 92.6019 20.3125 92.1875V18.75H79.6875V92.1875ZM20.3125 7.8125C20.3125 7.3981 20.4771 7.00067 20.7701 6.70765C21.0632 6.41462 21.4606 6.25 21.875 6.25H78.125C78.5394 6.25 78.9368 6.41462 79.2299 6.70765C79.5229 7.00067 79.6875 7.3981 79.6875 7.8125V15.625H20.3125V7.8125Z" fill="black"/>
<path d="M26.5625 9.375H23.4375V12.5H26.5625V9.375Z" fill="black"/>
<path d="M32.8125 9.375H29.6875V12.5H32.8125V9.375Z" fill="black"/>
<path d="M76.5625 9.375H73.4375V12.5H76.5625V9.375Z" fill="black"/>
<path d="M28.8719 26.7188C29.3788 26.9545 29.9008 27.1565 30.4344 27.3234C29.6253 28.3715 28.6007 29.2336 27.4297 29.8516L28.8266 32.6484C30.8578 31.5678 32.566 29.9675 33.7766 28.0109C33.9734 28.0313 34.1766 28.0453 34.3781 28.0594V32.8125H37.5031V28.0594C37.7047 28.0453 37.9078 28.0313 38.1047 28.0109C39.3133 29.97 41.0205 31.573 43.0516 32.6562L44.4484 29.8594C43.2768 29.2418 42.2516 28.3796 41.4422 27.3313C41.9757 27.1642 42.4977 26.9622 43.0047 26.7266C43.6144 27.6117 44.4239 28.341 45.3677 28.8554C46.3115 29.3698 47.3631 29.6548 48.4375 29.6875V26.5625C47.8662 26.5269 47.3106 26.3609 46.8133 26.0773C46.3161 25.7938 45.8903 25.4001 45.5687 24.9266C46.3831 24.117 46.8514 23.023 46.875 21.875H43.75C43.75 23.1484 40.7063 25 35.9375 25C31.1687 25 28.125 23.1484 28.125 21.875H25C25.0236 23.023 25.4919 24.117 26.3063 24.9266C25.9847 25.4001 25.5589 25.7938 25.0617 26.0773C24.5644 26.3609 24.0088 26.5269 23.4375 26.5625V29.6875C24.5128 29.6542 25.5652 29.368 26.5093 28.8523C27.4534 28.3365 28.2628 27.6056 28.8719 26.7188Z" fill="black"/>
<path d="M56.9969 26.7188C57.5038 26.9545 58.0258 27.1565 58.5594 27.3234C57.7503 28.3715 56.7257 29.2336 55.5547 29.8516L56.9516 32.6484C58.9828 31.5678 60.691 29.9675 61.9016 28.0109C62.0984 28.0313 62.3016 28.0453 62.5031 28.0594V32.8125H65.6281V28.0594C65.8297 28.0453 66.0328 28.0313 66.2297 28.0109C67.4384 29.97 69.1455 31.573 71.1766 32.6562L72.5734 29.8594C71.4018 29.2418 70.3765 28.3796 69.5672 27.3313C70.1007 27.1642 70.6227 26.9622 71.1297 26.7266C71.7394 27.6117 72.5489 28.341 73.4927 28.8554C74.4365 29.3698 75.4881 29.6548 76.5625 29.6875V26.5625C75.9912 26.5269 75.4356 26.3609 74.9383 26.0773C74.4411 25.7938 74.0153 25.4001 73.6938 24.9266C74.5081 24.117 74.9764 23.023 75 21.875H71.875C71.875 23.1484 68.8313 25 64.0625 25C59.2937 25 56.25 23.1484 56.25 21.875H53.125C53.1486 23.023 53.6169 24.117 54.4312 24.9266C54.1097 25.4001 53.6839 25.7938 53.1867 26.0773C52.6894 26.3609 52.1338 26.5269 51.5625 26.5625V29.6875C52.6378 29.6542 53.6902 29.368 54.6343 28.8523C55.5784 28.3365 56.3878 27.6056 56.9969 26.7188V26.7188Z" fill="black"/>
<path d="M28.8719 40.7813C29.3788 41.017 29.9008 41.219 30.4344 41.3859C29.6253 42.434 28.6007 43.2961 27.4297 43.9141L28.8266 46.7109C30.8578 45.6303 32.566 44.03 33.7766 42.0734C33.9734 42.0938 34.1766 42.1078 34.3781 42.1219V46.875H37.5031V42.1219C37.7047 42.1078 37.9078 42.0938 38.1047 42.0734C39.3133 44.0325 41.0205 45.6355 43.0516 46.7187L44.4484 43.9219C43.2768 43.3043 42.2516 42.4421 41.4422 41.3938C41.9757 41.2267 42.4977 41.0247 43.0047 40.7891C43.6144 41.6742 44.4239 42.4035 45.3677 42.9179C46.3115 43.4323 47.3631 43.7173 48.4375 43.75V40.625C47.8662 40.5894 47.3106 40.4234 46.8133 40.1398C46.3161 39.8563 45.8903 39.4626 45.5687 38.9891C46.3831 38.1795 46.8514 37.0855 46.875 35.9375H43.75C43.75 37.2109 40.7063 39.0625 35.9375 39.0625C31.1687 39.0625 28.125 37.2109 28.125 35.9375H25C25.0236 37.0855 25.4919 38.1795 26.3063 38.9891C25.9847 39.4626 25.5589 39.8563 25.0617 40.1398C24.5644 40.4234 24.0088 40.5894 23.4375 40.625V43.75C24.5128 43.7167 25.5652 43.4305 26.5093 42.9148C27.4534 42.399 28.2628 41.6681 28.8719 40.7813V40.7813Z" fill="black"/>
<path d="M56.9969 40.7813C57.5038 41.017 58.0258 41.219 58.5594 41.3859C57.7503 42.434 56.7257 43.2961 55.5547 43.9141L56.9516 46.7109C58.9828 45.6303 60.691 44.03 61.9016 42.0734C62.0984 42.0938 62.3016 42.1078 62.5031 42.1219V46.875H65.6281V42.1219C65.8297 42.1078 66.0328 42.0938 66.2297 42.0734C67.4384 44.0325 69.1455 45.6355 71.1766 46.7187L72.5734 43.9219C71.4018 43.3043 70.3765 42.4421 69.5672 41.3938C70.1007 41.2267 70.6227 41.0247 71.1297 40.7891C71.7394 41.6742 72.5489 42.4035 73.4927 42.9179C74.4365 43.4323 75.4881 43.7173 76.5625 43.75V40.625C75.9912 40.5894 75.4356 40.4234 74.9383 40.1398C74.4411 39.8563 74.0153 39.4626 73.6938 38.9891C74.5081 38.1795 74.9764 37.0855 75 35.9375H71.875C71.875 37.2109 68.8313 39.0625 64.0625 39.0625C59.2937 39.0625 56.25 37.2109 56.25 35.9375H53.125C53.1486 37.0855 53.6169 38.1795 54.4312 38.9891C54.1097 39.4626 53.6839 39.8563 53.1867 40.1398C52.6894 40.4234 52.1338 40.5894 51.5625 40.625V43.75C52.6378 43.7167 53.6902 43.4305 54.6343 42.9148C55.5784 42.399 56.3878 41.6681 56.9969 40.7813V40.7813Z" fill="black"/>
<path d="M28.8719 54.8437C29.3788 55.0795 29.9008 55.2815 30.4344 55.4484C29.6236 56.494 28.5979 57.3535 27.4266 57.9687L28.8234 60.7656C30.8547 59.685 32.5628 58.0847 33.7734 56.1281C33.9703 56.1484 34.1734 56.1625 34.375 56.1766V60.9375H37.5V56.1844C37.7016 56.1703 37.9047 56.1562 38.1016 56.1359C39.3111 58.0954 41.0193 59.6985 43.0516 60.7813L44.4484 57.9844C43.2768 57.3668 42.2516 56.5046 41.4422 55.4563C41.9757 55.2892 42.4977 55.0872 43.0047 54.8516C43.6144 55.7367 44.4239 56.466 45.3677 56.9804C46.3115 57.4948 47.3631 57.7798 48.4375 57.8125V54.6875C47.8662 54.6519 47.3106 54.4859 46.8133 54.2023C46.3161 53.9188 45.8903 53.5251 45.5687 53.0516C46.3831 52.242 46.8514 51.148 46.875 50H43.75C43.75 51.2734 40.7063 53.125 35.9375 53.125C31.1687 53.125 28.125 51.2734 28.125 50H25C25.0236 51.148 25.4919 52.242 26.3063 53.0516C25.9847 53.5251 25.5589 53.9188 25.0617 54.2023C24.5644 54.4859 24.0088 54.6519 23.4375 54.6875V57.8125C24.5128 57.7792 25.5652 57.493 26.5093 56.9773C27.4534 56.4615 28.2628 55.7306 28.8719 54.8437V54.8437Z" fill="black"/>
<path d="M56.9969 54.8437C57.5038 55.0795 58.0258 55.2815 58.5594 55.4484C57.7486 56.494 56.7229 57.3535 55.5516 57.9687L56.9484 60.7656C58.9797 59.685 60.6878 58.0847 61.8984 56.1281C62.0953 56.1484 62.2984 56.1625 62.5 56.1766V60.9375H65.625V56.1844C65.8266 56.1703 66.0297 56.1562 66.2266 56.1359C67.4361 58.0954 69.1443 59.6985 71.1766 60.7813L72.5734 57.9844C71.4018 57.3668 70.3765 56.5046 69.5672 55.4563C70.1007 55.2892 70.6227 55.0872 71.1297 54.8516C71.7394 55.7367 72.5489 56.466 73.4927 56.9804C74.4365 57.4948 75.4881 57.7798 76.5625 57.8125V54.6875C75.9912 54.6519 75.4356 54.4859 74.9383 54.2023C74.4411 53.9188 74.0153 53.5251 73.6938 53.0516C74.5081 52.242 74.9764 51.148 75 50H71.875C71.875 51.2734 68.8313 53.125 64.0625 53.125C59.2937 53.125 56.25 51.2734 56.25 50H53.125C53.1486 51.148 53.6169 52.242 54.4312 53.0516C54.1097 53.5251 53.6839 53.9188 53.1867 54.2023C52.6894 54.4859 52.1338 54.6519 51.5625 54.6875V57.8125C52.6378 57.7792 53.6902 57.493 54.6343 56.9773C55.5784 56.4615 56.3878 55.7306 56.9969 54.8437V54.8437Z" fill="black"/>
<path d="M28.8719 68.9062C29.3788 69.142 29.9008 69.344 30.4344 69.5109C29.6253 70.559 28.6007 71.4211 27.4297 72.0391L28.8266 74.8359C30.8578 73.7553 32.566 72.155 33.7766 70.1984C33.9734 70.2187 34.1766 70.2328 34.3781 70.2469V75H37.5031V70.2469C37.7047 70.2328 37.9078 70.2187 38.1047 70.1984C39.3133 72.1575 41.0205 73.7605 43.0516 74.8438L44.4484 72.0469C43.2768 71.4293 42.2516 70.5671 41.4422 69.5188C41.9757 69.3517 42.4977 69.1497 43.0047 68.9141C43.6144 69.7992 44.4239 70.5285 45.3677 71.0429C46.3115 71.5573 47.3631 71.8423 48.4375 71.875V68.75C47.8662 68.7144 47.3106 68.5484 46.8133 68.2648C46.3161 67.9813 45.8903 67.5876 45.5687 67.1141C46.3831 66.3045 46.8514 65.2105 46.875 64.0625H43.75C43.75 65.3359 40.7063 67.1875 35.9375 67.1875C31.1687 67.1875 28.125 65.3359 28.125 64.0625H25C25.0236 65.2105 25.4919 66.3045 26.3063 67.1141C25.9847 67.5876 25.5589 67.9813 25.0617 68.2648C24.5644 68.5484 24.0088 68.7144 23.4375 68.75V71.875C24.5128 71.8417 25.5652 71.5555 26.5093 71.0398C27.4534 70.524 28.2628 69.7931 28.8719 68.9062V68.9062Z" fill="black"/>
<path d="M56.9969 68.9062C57.5038 69.142 58.0258 69.344 58.5594 69.5109C57.7503 70.559 56.7257 71.4211 55.5547 72.0391L56.9516 74.8359C58.9828 73.7553 60.691 72.155 61.9016 70.1984C62.0984 70.2187 62.3016 70.2328 62.5031 70.2469V75H65.6281V70.2469C65.8297 70.2328 66.0328 70.2187 66.2297 70.1984C67.4384 72.1575 69.1455 73.7605 71.1766 74.8438L72.5734 72.0469C71.4018 71.4293 70.3765 70.5671 69.5672 69.5188C70.1007 69.3517 70.6227 69.1497 71.1297 68.9141C71.7394 69.7992 72.5489 70.5285 73.4927 71.0429C74.4365 71.5573 75.4881 71.8423 76.5625 71.875V68.75C75.9912 68.7144 75.4356 68.5484 74.9383 68.2648C74.4411 67.9813 74.0153 67.5876 73.6938 67.1141C74.5081 66.3045 74.9764 65.2105 75 64.0625H71.875C71.875 65.3359 68.8313 67.1875 64.0625 67.1875C59.2937 67.1875 56.25 65.3359 56.25 64.0625H53.125C53.1486 65.2105 53.6169 66.3045 54.4312 67.1141C54.1097 67.5876 53.6839 67.9813 53.1867 68.2648C52.6894 68.5484 52.1338 68.7144 51.5625 68.75V71.875C52.6378 71.8417 53.6902 71.5555 54.6343 71.0398C55.5784 70.524 56.3878 69.7931 56.9969 68.9062Z" fill="black"/>
<path d="M28.8719 82.9687C29.3788 83.2045 29.9008 83.4065 30.4344 83.5734C29.6253 84.6215 28.6007 85.4836 27.4297 86.1016L28.8266 88.8984C30.8578 87.8178 32.566 86.2175 33.7766 84.2609C33.9734 84.2812 34.1766 84.2953 34.3781 84.3094V89.0625H37.5031V84.3094C37.7047 84.2953 37.9078 84.2812 38.1047 84.2609C39.3133 86.22 41.0205 87.823 43.0516 88.9063L44.4484 86.1094C43.2768 85.4918 42.2516 84.6296 41.4422 83.5813C41.9757 83.4142 42.4977 83.2122 43.0047 82.9766C43.6144 83.8617 44.4239 84.591 45.3677 85.1054C46.3115 85.6198 47.3631 85.9048 48.4375 85.9375V82.8125C47.8662 82.7769 47.3106 82.6109 46.8133 82.3273C46.3161 82.0438 45.8903 81.6501 45.5687 81.1766C46.3831 80.367 46.8514 79.273 46.875 78.125H43.75C43.75 79.3984 40.7063 81.25 35.9375 81.25C31.1687 81.25 28.125 79.3984 28.125 78.125H25C25.0236 79.273 25.4919 80.367 26.3063 81.1766C25.9847 81.6501 25.5589 82.0438 25.0617 82.3273C24.5644 82.6109 24.0088 82.7769 23.4375 82.8125V85.9375C24.5128 85.9042 25.5652 85.618 26.5093 85.1023C27.4534 84.5865 28.2628 83.8556 28.8719 82.9687V82.9687Z" fill="black"/>
<path d="M56.9969 82.9687C57.5038 83.2045 58.0258 83.4065 58.5594 83.5734C57.7503 84.6215 56.7257 85.4836 55.5547 86.1016L56.9516 88.8984C58.9828 87.8178 60.691 86.2175 61.9016 84.2609C62.0984 84.2812 62.3016 84.2953 62.5031 84.3094V89.0625H65.6281V84.3094C65.8297 84.2953 66.0328 84.2812 66.2297 84.2609C67.4384 86.22 69.1455 87.823 71.1766 88.9063L72.5734 86.1094C71.4018 85.4918 70.3765 84.6296 69.5672 83.5813C70.1007 83.4142 70.6227 83.2122 71.1297 82.9766C71.7394 83.8617 72.5489 84.591 73.4927 85.1054C74.4365 85.6198 75.4881 85.9048 76.5625 85.9375V82.8125C75.9912 82.7769 75.4356 82.6109 74.9383 82.3273C74.4411 82.0438 74.0153 81.6501 73.6938 81.1766C74.5081 80.367 74.9764 79.273 75 78.125H71.875C71.875 79.3984 68.8313 81.25 64.0625 81.25C59.2937 81.25 56.25 79.3984 56.25 78.125H53.125C53.1486 79.273 53.6169 80.367 54.4312 81.1766C54.1097 81.6501 53.6839 82.0438 53.1867 82.3273C52.6894 82.6109 52.1338 82.7769 51.5625 82.8125V85.9375C52.6378 85.9042 53.6902 85.618 54.6343 85.1023C55.5784 84.5865 56.3878 83.8556 56.9969 82.9687Z" fill="black"/>
</svg>
