<svg id="Capa_1" enable-background="new 0 0 512 512" height="512" viewBox="0 0 512 512" width="512" xmlns="http://www.w3.org/2000/svg"><g><g><g><path d="m127.423 252.546c-33.433 0-66.231-13.458-90.232-37.099-23.983-23.624-37.191-54.97-37.191-88.264 0-36.641 16.297-71.329 44.713-95.169 29.266-24.553 67.514-34.846 104.944-28.243l252.95 44.64c7.167 1.265 12.393 7.493 12.393 14.772v128c0 7.278-5.226 13.507-12.393 14.771-61.29 10.817-108.112 19.108-144.001 25.464-119.12 21.094-119.12 21.094-127.721 21.104-.478 0-.991.001-1.583.009-.626.01-1.253.015-1.879.015zm-.049-220.728c-22.959 0-45.374 8.073-63.378 23.178-21.605 18.126-33.996 44.437-33.996 72.187 0 25.195 10.03 48.951 28.243 66.891 18.764 18.481 44.502 28.853 70.63 28.46.754-.01 1.387-.011 1.976-.012 5.872-.007 8.162-.393 122.525-20.645 33.436-5.921 76.356-13.521 131.625-23.279v-102.831l-240.556-42.452c-5.682-1.003-11.395-1.497-17.069-1.497z" fill="#222221"/></g><g><path d="m128 174.183c-25.916 0-47-21.084-47-47s21.084-47 47-47 47 21.084 47 47-21.084 47-47 47zm0-64c-9.374 0-17 7.626-17 17s7.626 17 17 17 17-7.626 17-17-7.626-17-17-17z" fill="#222221"/></g><g><path d="m496.999 238.183c-1.577 0-3.163-.249-4.698-.755l-97-32c-6.148-2.028-10.301-7.772-10.301-14.245v-128c0-6.474 4.153-12.217 10.301-14.245l97-32c4.569-1.507 9.589-.731 13.488 2.09 3.901 2.82 6.211 7.341 6.211 12.155v192c0 4.813-2.31 9.334-6.211 12.155-2.59 1.873-5.673 2.845-8.79 2.845zm-81.999-57.847 67 22.103v-150.513l-67 22.103z" fill="#222221"/></g><g><path d="m193.174 430.183c-26.533 0-49.09-18.973-53.637-45.112l-25.215-144.967c-.752-4.327.429-8.767 3.234-12.148 2.805-3.38 6.95-5.362 11.342-5.421 8.059-.109 9.313-.294 44.749-6.605 8.324-1.483 18.479-3.291 30.988-5.499 3.927-.69 7.97.207 11.232 2.5 3.263 2.293 5.478 5.792 6.156 9.723l24.803 143.835c2.735 15.859-1.643 32.015-12.011 44.324s-25.546 19.37-41.641 19.37zm-46.499-179.14 22.418 128.887c2.041 11.735 12.168 20.253 24.081 20.253 7.226 0 14.04-3.17 18.695-8.696s6.621-12.779 5.393-19.899l-22.243-128.988c-6.031 1.07-11.369 2.021-16.112 2.866-16.212 2.886-25.707 4.577-32.232 5.577z" fill="#222221"/></g><g><path d="m279.995 510.185c-25.26.001-49.012-9.783-66.96-27.599-18.078-17.944-28.035-42.092-28.035-67.993 0-8.284 6.716-15 15-15s15 6.716 15 15c0 17.846 6.808 34.432 19.169 46.701 12.284 12.193 28.543 18.891 45.832 18.891.166 0 .331 0 .498-.002 35.565-.266 64.501-29.873 64.501-66v-51c0-28.121 22.879-51 51-51s51 22.879 51 51v132c0 8.284-6.716 15-15 15s-15-6.716-15-15v-132c0-11.579-9.421-21-21-21s-21 9.421-21 21v51c0 52.545-42.293 95.61-94.277 96-.242.001-.487.002-.728.002z" fill="#222221"/></g></g></g></svg>