<svg width="100" height="100" viewBox="0 0 100 100" fill="none" xmlns="http://www.w3.org/2000/svg">
<path d="M43.75 71.875H53.125C53.5394 71.875 53.9368 71.7104 54.2299 71.4174C54.5229 71.1243 54.6875 70.7269 54.6875 70.3125C54.6875 69.8981 54.5229 69.5007 54.2299 69.2076C53.9368 68.9146 53.5394 68.75 53.125 68.75H43.75C43.3356 68.75 42.9382 68.9146 42.6451 69.2076C42.3521 69.5007 42.1875 69.8981 42.1875 70.3125C42.1875 70.7269 42.3521 71.1243 42.6451 71.4174C42.9382 71.7104 43.3356 71.875 43.75 71.875Z" fill="black"/>
<path d="M54.6875 75H42.1875C41.7731 75 41.3757 75.1646 41.0826 75.4576C40.7896 75.7507 40.625 76.1481 40.625 76.5625C40.625 76.9769 40.7896 77.3743 41.0826 77.6674C41.3757 77.9604 41.7731 78.125 42.1875 78.125H54.6875C55.1019 78.125 55.4993 77.9604 55.7924 77.6674C56.0854 77.3743 56.25 76.9769 56.25 76.5625C56.25 76.1481 56.0854 75.7507 55.7924 75.4576C55.4993 75.1646 55.1019 75 54.6875 75Z" fill="black"/>
<path d="M90.6252 30.4932V29.6876C90.6238 28.4448 90.1295 27.2533 89.2507 26.3746C88.3719 25.4958 87.1805 25.0015 85.9377 25.0001H73.4377C72.1949 25.0015 71.0034 25.4958 70.1247 26.3746C69.2459 27.2533 68.7516 28.4448 68.7502 29.6876V30.4932C66.8304 31.7816 65.2564 33.5218 64.1666 35.5609C63.0768 37.6 62.5046 39.8755 62.5002 42.1876V45.8581C61.6094 44.7506 60.5558 43.7846 59.3752 42.9932V42.1876C59.3738 40.9448 58.8795 39.7533 58.0007 38.8746C57.1219 37.9958 55.9305 37.5015 54.6877 37.5001H44.1293L30.0992 23.4702L33.4139 20.1563C33.5762 19.994 33.7008 19.7979 33.7787 19.5819C33.8566 19.366 33.886 19.1355 33.8648 18.9069C33.8436 18.6783 33.7722 18.4572 33.6558 18.2593C33.5394 18.0615 33.3809 17.8916 33.1914 17.762L12.199 3.39851C11.8982 3.19274 11.535 3.09858 11.1721 3.13232C10.8093 3.16606 10.4696 3.32558 10.2119 3.58328L3.58281 10.2118C3.3252 10.4696 3.16579 10.8093 3.13216 11.1721C3.09853 11.535 3.19278 11.8982 3.39863 12.1989L17.7619 33.1913C17.8916 33.3808 18.0614 33.5393 18.2592 33.6557C18.4571 33.7721 18.6782 33.8435 18.9068 33.8647C18.955 33.8692 19.0033 33.8714 19.0516 33.8714C19.4659 33.8713 19.8633 33.7067 20.1562 33.4137L23.4709 30.0991L36.8385 43.4669C35.1057 44.7805 33.6999 46.4766 32.7305 48.4229C31.7612 50.3692 31.2546 52.5132 31.2502 54.6876V95.3126C31.2502 95.727 31.4148 96.1244 31.7078 96.4174C32.0009 96.7105 32.3983 96.8751 32.8127 96.8751H95.3127C95.7271 96.8751 96.1245 96.7105 96.4175 96.4174C96.7106 96.1244 96.8752 95.727 96.8752 95.3126V42.1876C96.8708 39.8755 96.2986 37.6 95.2088 35.5609C94.119 33.5218 92.545 31.7816 90.6252 30.4932ZM71.8752 29.6876C71.8757 29.2733 72.0404 28.8762 72.3333 28.5832C72.6263 28.2903 73.0234 28.1255 73.4377 28.1251H85.9377C86.3519 28.1255 86.7491 28.2903 87.042 28.5832C87.335 28.8762 87.4997 29.2733 87.5002 29.6876V45.3126C87.5003 45.5526 87.4819 45.7922 87.4453 46.0294C85.4285 44.5917 82.6527 43.7501 79.6877 43.7501C76.7227 43.7501 73.9469 44.5917 71.9301 46.0294C71.8935 45.7922 71.8751 45.5526 71.8752 45.3126V29.6876ZM85.9396 48.8011C85.0815 49.5737 83.9674 50.0009 82.8127 50.0001H76.5627C75.4079 50.0009 74.2939 49.5737 73.4357 48.8011C74.9109 47.6073 77.223 46.8751 79.6877 46.8751C82.1523 46.8751 84.4644 47.6073 85.9396 48.8011ZM45.8082 56.4792C43.9681 56.7746 42.2165 57.4751 40.6801 58.53C40.6434 58.2926 40.6251 58.0528 40.6252 57.8126V48.7048L45.8082 56.4792ZM43.5566 40.9487L54.1633 48.019L48.0197 54.1632L40.9494 43.5565L43.5566 40.9487ZM56.2502 57.8126C56.2503 58.0526 56.2319 58.2922 56.1953 58.5294C54.5947 57.3884 52.5156 56.6262 50.243 56.3594L56.2502 50.3516V57.8126ZM48.4377 59.3751C50.9023 59.3751 53.2144 60.1073 54.6896 61.301C53.8315 62.0737 52.7174 62.5009 51.5627 62.5001H45.3127C44.1579 62.5009 43.0439 62.0737 42.1857 61.301C43.6609 60.1073 45.973 59.3751 48.4377 59.3751ZM56.2502 42.1876V45.6554L48.7049 40.6251H54.6877C55.1019 40.6255 55.4991 40.7903 55.792 41.0832C56.085 41.3762 56.2497 41.7733 56.2502 42.1876V42.1876ZM19.2775 29.8727L6.70957 11.504L11.5041 6.70945L29.8728 19.2774L19.2775 29.8727ZM27.8908 25.6798L41.149 38.938L38.9393 41.1477L25.6799 27.8895L27.8908 25.6798ZM34.3752 54.6876C34.3805 51.8278 35.5017 49.083 37.5002 47.0374V57.8126C37.5025 59.8839 38.3264 61.8697 39.791 63.3343C41.2556 64.7989 43.2414 65.6227 45.3127 65.6251H51.5627C53.634 65.6227 55.6198 64.7989 57.0844 63.3343C58.549 61.8697 59.3729 59.8839 59.3752 57.8126V47.0374C61.3737 49.083 62.4949 51.8278 62.5002 54.6876V93.7501H34.3752V54.6876ZM93.7502 93.7501H65.6252V42.1876C65.6305 39.3278 66.7517 36.583 68.7502 34.5374V45.3126C68.7525 47.3839 69.5764 49.3697 71.041 50.8343C72.5056 52.2989 74.4914 53.1228 76.5627 53.1251H82.8127C84.884 53.1228 86.8698 52.2989 88.3344 50.8343C89.799 49.3697 90.6229 47.3839 90.6252 45.3126V34.5374C92.6237 36.583 93.7449 39.3278 93.7502 42.1876V93.7501Z" fill="black"/>
<path d="M75 59.375H84.375C84.7894 59.375 85.1868 59.2104 85.4799 58.9174C85.7729 58.6243 85.9375 58.2269 85.9375 57.8125C85.9375 57.3981 85.7729 57.0007 85.4799 56.7076C85.1868 56.4146 84.7894 56.25 84.375 56.25H75C74.5856 56.25 74.1882 56.4146 73.8951 56.7076C73.6021 57.0007 73.4375 57.3981 73.4375 57.8125C73.4375 58.2269 73.6021 58.6243 73.8951 58.9174C74.1882 59.2104 74.5856 59.375 75 59.375Z" fill="black"/>
<path d="M85.9375 62.5H73.4375C73.0231 62.5 72.6257 62.6646 72.3326 62.9576C72.0396 63.2507 71.875 63.6481 71.875 64.0625C71.875 64.4769 72.0396 64.8743 72.3326 65.1674C72.6257 65.4604 73.0231 65.625 73.4375 65.625H85.9375C86.3519 65.625 86.7493 65.4604 87.0424 65.1674C87.3354 64.8743 87.5 64.4769 87.5 64.0625C87.5 63.6481 87.3354 63.2507 87.0424 62.9576C86.7493 62.6646 86.3519 62.5 85.9375 62.5Z" fill="black"/>
<path d="M20.3125 57.8125C19.8981 57.8125 19.5007 57.9771 19.2076 58.2701C18.9146 58.5632 18.75 58.9606 18.75 59.375V62.5C18.75 62.9144 18.9146 63.3118 19.2076 63.6049C19.5007 63.8979 19.8981 64.0625 20.3125 64.0625C20.7269 64.0625 21.1243 63.8979 21.4174 63.6049C21.7104 63.3118 21.875 62.9144 21.875 62.5V59.375C21.875 58.9606 21.7104 58.5632 21.4174 58.2701C21.1243 57.9771 20.7269 57.8125 20.3125 57.8125Z" fill="black"/>
<path d="M18.75 71.875C18.75 72.2894 18.9146 72.6868 19.2076 72.9799C19.5007 73.2729 19.8981 73.4375 20.3125 73.4375C20.7269 73.4375 21.1243 73.2729 21.4174 72.9799C21.7104 72.6868 21.875 72.2894 21.875 71.875V68.75C21.875 68.3356 21.7104 67.9382 21.4174 67.6451C21.1243 67.3521 20.7269 67.1875 20.3125 67.1875C19.8981 67.1875 19.5007 67.3521 19.2076 67.6451C18.9146 67.9382 18.75 68.3356 18.75 68.75V71.875Z" fill="black"/>
<path d="M17.1875 64.0625H14.0625C13.6481 64.0625 13.2507 64.2271 12.9576 64.5201C12.6646 64.8132 12.5 65.2106 12.5 65.625C12.5 66.0394 12.6646 66.4368 12.9576 66.7299C13.2507 67.0229 13.6481 67.1875 14.0625 67.1875H17.1875C17.6019 67.1875 17.9993 67.0229 18.2924 66.7299C18.5854 66.4368 18.75 66.0394 18.75 65.625C18.75 65.2106 18.5854 64.8132 18.2924 64.5201C17.9993 64.2271 17.6019 64.0625 17.1875 64.0625Z" fill="black"/>
<path d="M23.4375 67.1875H26.5625C26.9769 67.1875 27.3743 67.0229 27.6674 66.7299C27.9604 66.4368 28.125 66.0394 28.125 65.625C28.125 65.2106 27.9604 64.8132 27.6674 64.5201C27.3743 64.2271 26.9769 64.0625 26.5625 64.0625H23.4375C23.0231 64.0625 22.6257 64.2271 22.3326 64.5201C22.0396 64.8132 21.875 65.2106 21.875 65.625C21.875 66.0394 22.0396 66.4368 22.3326 66.7299C22.6257 67.0229 23.0231 67.1875 23.4375 67.1875V67.1875Z" fill="black"/>
<path d="M54.6875 12.5C54.2731 12.5 53.8757 12.6646 53.5826 12.9576C53.2896 13.2507 53.125 13.6481 53.125 14.0625V17.1875C53.125 17.6019 53.2896 17.9993 53.5826 18.2924C53.8757 18.5854 54.2731 18.75 54.6875 18.75C55.1019 18.75 55.4993 18.5854 55.7924 18.2924C56.0854 17.9993 56.25 17.6019 56.25 17.1875V14.0625C56.25 13.6481 56.0854 13.2507 55.7924 12.9576C55.4993 12.6646 55.1019 12.5 54.6875 12.5Z" fill="black"/>
<path d="M53.125 26.5625C53.125 26.9769 53.2896 27.3743 53.5826 27.6674C53.8757 27.9604 54.2731 28.125 54.6875 28.125C55.1019 28.125 55.4993 27.9604 55.7924 27.6674C56.0854 27.3743 56.25 26.9769 56.25 26.5625V23.4375C56.25 23.0231 56.0854 22.6257 55.7924 22.3326C55.4993 22.0396 55.1019 21.875 54.6875 21.875C54.2731 21.875 53.8757 22.0396 53.5826 22.3326C53.2896 22.6257 53.125 23.0231 53.125 23.4375V26.5625Z" fill="black"/>
<path d="M51.5625 18.75H48.4375C48.0231 18.75 47.6257 18.9146 47.3326 19.2076C47.0396 19.5007 46.875 19.8981 46.875 20.3125C46.875 20.7269 47.0396 21.1243 47.3326 21.4174C47.6257 21.7104 48.0231 21.875 48.4375 21.875H51.5625C51.9769 21.875 52.3743 21.7104 52.6674 21.4174C52.9604 21.1243 53.125 20.7269 53.125 20.3125C53.125 19.8981 52.9604 19.5007 52.6674 19.2076C52.3743 18.9146 51.9769 18.75 51.5625 18.75Z" fill="black"/>
<path d="M57.8125 21.875H60.9375C61.3519 21.875 61.7493 21.7104 62.0424 21.4174C62.3354 21.1243 62.5 20.7269 62.5 20.3125C62.5 19.8981 62.3354 19.5007 62.0424 19.2076C61.7493 18.9146 61.3519 18.75 60.9375 18.75H57.8125C57.3981 18.75 57.0007 18.9146 56.7076 19.2076C56.4146 19.5007 56.25 19.8981 56.25 20.3125C56.25 20.7269 56.4146 21.1243 56.7076 21.4174C57.0007 21.7104 57.3981 21.875 57.8125 21.875Z" fill="black"/>
</svg>
