<?xml version="1.0"?>
<svg xmlns="http://www.w3.org/2000/svg" id="Outline" viewBox="0 0 512 512" width="512" height="512"><path d="M224,368h48a8,8,0,0,0,0-16H224a8,8,0,0,0,0,16Z"/><path d="M280,384H216a8,8,0,0,0,0,16h64a8,8,0,0,0,0-16Z"/><path d="M464,156.125V152a24.027,24.027,0,0,0-24-24H376a24.027,24.027,0,0,0-24,24v4.125A72.273,72.273,0,0,0,320,216v18.793a71.933,71.933,0,0,0-16-14.668V216a24.027,24.027,0,0,0-24-24H225.941l-71.834-71.833L171.078,103.2a8,8,0,0,0-1.139-12.259L62.458,17.4a8,8,0,0,0-10.174.946L18.343,52.284A8,8,0,0,0,17.4,62.458l73.54,107.481a8,8,0,0,0,5.862,3.448q.37.034.741.034a8,8,0,0,0,5.656-2.343l16.971-16.971,68.442,68.443A72.275,72.275,0,0,0,160,280V488a8,8,0,0,0,8,8H488a8,8,0,0,0,8-8V216A72.273,72.273,0,0,0,464,156.125ZM368,152a8.009,8.009,0,0,1,8-8h64a8.009,8.009,0,0,1,8,8v80a24.01,24.01,0,0,1-.281,3.67C437.393,228.309,423.181,224,408,224s-29.393,4.309-39.719,11.67A24.01,24.01,0,0,1,368,232Zm72.01,97.861A23.9,23.9,0,0,1,424,256H392a23.9,23.9,0,0,1-16.01-6.139C383.543,243.749,395.381,240,408,240S432.457,243.749,440.01,249.861ZM234.537,289.173a64.434,64.434,0,0,0-26.256,10.5A24.01,24.01,0,0,1,208,296V249.368Zm-11.528-79.516,54.306,36.2L245.86,277.315l-36.2-54.306ZM288,296a24.01,24.01,0,0,1-.281,3.67c-8.195-5.842-18.84-9.744-30.476-11.11L288,257.8Zm-40,8c12.619,0,24.457,3.749,32.01,9.861A23.9,23.9,0,0,1,264,320H232a23.9,23.9,0,0,1-16.01-6.139C223.543,307.749,235.381,304,248,304Zm40-88v17.755L249.368,208H280A8.009,8.009,0,0,1,288,216ZM98.7,152.948,34.352,58.9,58.9,34.352,152.948,98.7Zm44.1-21.468,67.882,67.882-11.314,11.314L131.48,142.794ZM176,280a56.2,56.2,0,0,1,16-39.169V296a40.045,40.045,0,0,0,40,40h32a40.045,40.045,0,0,0,40-40V240.831A56.2,56.2,0,0,1,320,280V480H176ZM480,480H336V216a56.2,56.2,0,0,1,16-39.169V232a40.045,40.045,0,0,0,40,40h32a40.045,40.045,0,0,0,40-40V176.831A56.2,56.2,0,0,1,480,216Z"/><path d="M384,304h48a8,8,0,0,0,0-16H384a8,8,0,0,0,0,16Z"/><path d="M440,320H376a8,8,0,0,0,0,16h64a8,8,0,0,0,0-16Z"/><path d="M104,296a8,8,0,0,0-8,8v16a8,8,0,0,0,16,0V304A8,8,0,0,0,104,296Z"/><path d="M96,368a8,8,0,0,0,16,0V352a8,8,0,0,0-16,0Z"/><path d="M88,328H72a8,8,0,0,0,0,16H88a8,8,0,0,0,0-16Z"/><path d="M120,344h16a8,8,0,0,0,0-16H120a8,8,0,0,0,0,16Z"/><path d="M280,64a8,8,0,0,0-8,8V88a8,8,0,0,0,16,0V72A8,8,0,0,0,280,64Z"/><path d="M272,136a8,8,0,0,0,16,0V120a8,8,0,0,0-16,0Z"/><path d="M264,96H248a8,8,0,0,0,0,16h16a8,8,0,0,0,0-16Z"/><path d="M296,112h16a8,8,0,0,0,0-16H296a8,8,0,0,0,0,16Z"/></svg>
