<svg id="Layer_1_1_" enable-background="new 0 0 64 64" height="512" viewBox="0 0 64 64" width="512" xmlns="http://www.w3.org/2000/svg"><g><path d="m12.605 53c-2.557 0-5.032.75-7.16 2.168l1.109 1.664c1.799-1.198 3.891-1.832 6.051-1.832h.789c2.16 0 4.253.634 6.051 1.832l1.109-1.664c-2.127-1.418-4.603-2.168-7.159-2.168z"/><path d="m16.581 51.582 1.103.367.633-1.898-1.103-.366c-2.725-.908-5.703-.907-8.428-.001l-1.103.367.633 1.898 1.103-.368c2.314-.771 4.848-.772 7.162.001z"/><path d="m49.707 40.293c-.391-.391-1.023-.391-1.414 0l-1.293 1.293-1.586-1.586 2.293-2.293c.391-.391.391-1.023 0-1.414l-35-35c-.187-.188-.441-.293-.707-.293-2.847 0-5.522 1.108-7.534 3.121l-.345.343c-2.013 2.014-3.121 4.69-3.121 7.536 0 .265.105.52.293.707l4.824 4.824c-.075.142-.117.303-.117.469v5.78c-2.613 5.314-4 11.241-4 17.164v22.056h2v-22.056c0-4.048.693-8.096 2-11.93v5.986c0 2.757 2.243 5 5 5h4c2.757 0 5-2.243 5-5v-3.586l.993.993c.666 2.797 1.007 5.667 1.007 8.537v22.056h2v-22.056c0-2.014-.174-4.025-.485-6.016l12.778 12.778c.195.196.451.294.707.294s.512-.098.707-.293l2.293-2.293 1.586 1.586-1.293 1.293c-.391.391-.391 1.023 0 1.414l13 13 1.414-1.414-12.293-12.293 6.586-6.586 12.293 12.293 1.414-1.414zm-8.121.707h-9.172l-2-2h13.172zm-13.172-4-2-2h17.172l2 2zm-2.828-20h-17.172l-2-2h17.172zm2 2 2 2h-17.172l-2-2zm4 4 2 2h-17.172l-2-2zm4 4 2 2h-17.172l-2-2zm4 4 2 2h-17.172l-2-2zm-24-24 2 2h-14.046c.261-.708.613-1.38 1.054-2zm-2.001-2h-7.12c1.449-1.209 3.233-1.904 5.129-1.991zm-10.521 6h16.522l2 2h-17.172l-1.405-1.405c.009-.2.032-.397.055-.595zm14.936 24c0 1.654-1.346 3-3 3h-4c-1.654 0-3-1.346-3-3v-15.586l10 10zm19 10.586-2.586-2.586h5.172zm4.414-1.586 2.586-2.586 1.586 1.586-2.586 2.586z"/><path d="m49.707 46.707-1.414-1.414-3 3c-.391.391-.391 1.023 0 1.414l13 13 1.414-1.414-12.293-12.293z"/></g></svg>