<svg width="100" height="100" viewBox="0 0 100 100" fill="none" xmlns="http://www.w3.org/2000/svg">
<g clip-path="url(#clip0)">
<path d="M22.2848 26.4065C22.2848 26.4065 22.387 25.8447 22.5596 24.8597C22.7385 23.8871 23.0194 22.5203 23.4162 20.9398C23.6163 20.1489 23.8697 19.3136 24.1537 18.4447C24.4362 17.5819 24.7736 16.6903 25.1646 15.8061C25.5493 14.9174 26.012 14.0457 26.5128 13.1964C26.7435 12.7414 27.0443 12.4346 27.2885 12.0284C27.5038 11.6526 27.9636 11.181 28.2887 10.7641L28.4199 10.6022L28.4764 10.5335L28.4825 10.5212L28.7633 10.2447L29.3178 9.69497C29.6889 9.32855 30.037 8.94357 30.399 8.57872C31.141 7.85949 31.9473 7.2182 32.6726 6.53244C33.4575 5.90501 34.218 5.29406 34.937 4.71841C35.6915 4.15663 36.4029 3.62832 37.0612 3.14264C37.7422 2.68312 38.3684 2.24792 38.921 1.84463C39.4935 1.48894 39.9868 1.14214 40.3977 0.862815C41.2225 0.328231 41.7145 0 41.7145 0C41.7145 0 41.1389 0.00601538 40.1324 0.158754C39.1308 0.319077 37.715 0.626123 36.066 1.2002C35.2629 1.51928 34.3679 1.84463 33.458 2.27355C32.5768 2.74223 31.6196 3.21431 30.6912 3.80512C29.793 4.44328 28.8235 5.06338 27.9348 5.82524C27.5072 6.22383 27.066 6.62084 26.6415 7.03617L26.0002 7.65314L25.6782 7.96463L25.6552 7.98764L25.6461 7.9968L25.5681 8.08075L25.5375 8.12207L25.4687 8.20315L25.3343 8.3619C24.9802 8.83215 24.6457 9.1698 24.279 9.74858C23.9356 10.286 23.5383 10.8557 23.2912 11.3963C22.7215 12.4712 22.2942 13.5843 21.9809 14.6762C21.3547 16.8598 21.1777 18.9487 21.2433 20.7065C21.2768 22.4669 21.5532 23.9085 21.7991 24.8875C22.0462 25.8719 22.2848 26.4065 22.2848 26.4065Z" fill="black"/>
<path d="M80.5538 30.0499C80.4865 29.0618 80.3521 28.0892 80.1753 27.1288C79.9797 26.1883 79.7477 25.1377 79.4791 24.2992L79.0881 23.0075L78.5933 21.6438C78.2909 20.7721 77.9059 19.9276 77.5547 19.0862C76.0796 15.7375 74.1251 12.7034 71.856 10.1976C69.6021 7.66905 67.0003 5.73262 64.4226 4.3598C61.842 2.96554 59.2794 2.14876 56.9951 1.66151C54.7046 1.16066 52.6784 1.0142 51.0216 0.976019C49.36 0.92868 48.0622 1.0448 47.1811 1.12274C46.3047 1.21428 45.8389 1.27077 45.8389 1.27077C45.8389 1.27077 46.3047 1.28908 47.1871 1.3257C48.0622 1.37591 49.348 1.49831 50.9559 1.72899C52.5623 1.96725 54.4909 2.37943 56.6195 3.06493C58.7391 3.76585 61.0419 4.78585 63.317 6.24262C65.5773 7.71168 67.782 9.65386 69.6999 12.0407C71.6238 14.4303 73.1998 17.2874 74.4793 20.3994C74.7724 21.1903 75.0991 21.9723 75.3497 22.7983L75.7346 23.977L76.0828 25.2842C76.3299 26.176 76.4432 26.9133 76.599 27.767C76.7335 28.6146 76.8462 29.456 76.8954 30.3094C77.1119 33.7222 76.5287 37.1748 75.1791 40.4137C73.8903 43.6816 71.9538 46.763 69.8892 49.7469C67.9225 52.5535 65.9099 55.3572 64.0501 58.1975C64.5664 56.475 65.0061 54.7339 65.357 52.9628C66.014 49.5393 66.3038 46.0302 66.1267 42.4785C65.9494 38.9357 65.2595 35.2985 63.5461 31.9422C63.3416 31.5208 63.1094 31.1115 62.8591 30.7067C62.6357 30.3065 62.3459 29.8883 62.0405 29.4714C61.735 29.0179 61.4787 28.7339 61.2095 28.4117L61.0079 28.1765L60.8981 28.0484L60.8431 27.9872L60.733 27.865L60.2691 27.3762C59.0351 26.0785 57.673 24.9528 56.3049 23.9145C53.57 21.8285 50.7679 20.0678 48.3416 18.0798C47.1275 17.0782 46.0526 15.9834 45.2005 14.7387C44.3194 13.517 43.7194 12.1092 43.3878 10.5991C43.0627 9.0858 42.9709 7.47159 43.0993 5.8456C43.1144 5.6348 43.1529 5.42243 43.1741 5.21346C43.3161 4.59676 43.4568 3.97508 43.5651 3.35366C43.6932 2.54603 43.7727 1.75488 43.8567 0.954834C43.8094 1.05108 43.768 1.15177 43.7194 1.25116C43.7683 1.15491 43.8065 1.05108 43.8567 0.954834C43.7557 1.08926 43.6689 1.23573 43.568 1.3733C43.3817 1.5229 43.0993 1.77319 42.731 2.16419C42.0866 2.8591 41.2102 3.98136 40.4222 5.60446C39.6661 7.1376 38.9272 9.11352 38.5835 11.5095C37.2855 13.4642 35.8594 15.324 34.3735 17.1503C32.3733 19.5766 30.2996 21.9634 28.2289 24.4632C27.2181 25.7351 26.224 27.0394 25.2895 28.4274C24.3733 29.8002 23.4846 31.2431 22.7976 32.8191L21.8675 34.6271L20.9864 36.6245C20.4673 37.9942 19.9816 39.3929 19.7329 40.8682C19.5754 41.5995 19.4823 42.3477 19.4258 43.1023C19.3541 43.849 19.3602 44.6187 19.3908 45.3777L19.4823 46.5198L19.6915 47.6543C19.8704 48.3995 20.0734 49.1462 20.3726 49.8471C20.6352 50.5632 20.9956 51.2442 21.3863 51.8918C21.765 52.5545 22.2248 53.1529 22.7086 53.7181C23.6876 54.848 24.8007 55.8222 26.0085 56.6225C28.4256 58.1923 31.1056 59.2426 33.8633 59.6396C32.5943 59.0838 31.4064 58.3934 30.2703 57.6666C29.1477 56.9123 28.0697 56.1151 27.1247 55.2052C26.1735 54.3011 25.3138 53.3303 24.6417 52.2674C24.3074 51.733 24.0064 51.1862 23.747 50.6244C23.4872 50.0686 23.26 49.4974 23.1088 48.9066C22.9286 48.3218 22.8368 47.7171 22.756 47.12C22.6872 46.5169 22.6629 45.9107 22.666 45.3C22.6812 44.6906 22.7118 44.0768 22.8127 43.4614C22.8967 42.852 23.0128 42.2381 23.1823 41.635C23.3029 41.0257 23.5563 40.4304 23.7289 39.8241C23.9258 39.2239 24.1824 38.63 24.4008 38.0329L25.2207 36.2753L26.1492 34.5513L26.1842 34.4888L26.224 34.4048C26.8621 33.0825 27.5754 31.7693 28.4107 30.4927C29.2385 29.2101 30.1531 27.9534 31.1027 26.7059C32.961 24.1695 34.9934 21.6713 36.8014 18.9625C37.3925 18.0814 37.9666 17.1836 38.5208 16.2674C38.7177 17.6585 39.1027 19.097 39.8125 20.52C40.5501 22.0241 41.6161 23.4686 42.952 24.7041C43.2897 25.002 43.6469 25.292 44.0026 25.5836C44.3751 25.8494 44.7538 26.1211 45.1416 26.3717C45.4288 26.5427 45.7296 26.7185 46.0196 26.894C46.1509 26.9962 46.2762 27.1155 46.4075 27.2162C46.974 27.6728 47.5865 28.0254 48.1773 28.4315L49.0752 28.9415C50.9672 30.4959 52.6805 32.5008 54.0136 34.7487C54.2641 35.1719 54.4715 35.6283 54.6915 36.0698C54.7984 36.3475 54.9114 36.6195 55.0153 36.9004C55.3024 37.8822 55.565 38.881 55.6688 39.9225C55.9374 41.9824 55.8033 44.128 55.4429 46.252C55.0582 48.3775 54.5021 50.5153 53.7481 52.6045C53.2823 53.9208 52.731 55.2125 52.1493 56.4951C51.6302 56.9685 51.0712 57.4542 50.4666 57.9367C49.2222 58.9141 47.8279 59.9249 46.3071 60.9601C44.7572 61.9801 43.1249 63.0556 41.4299 64.1671C39.7241 65.2909 37.9451 66.4728 36.209 67.832C34.4714 69.1758 32.7138 70.6294 31.1501 72.3274C29.568 74.0007 28.1756 75.9251 27.125 78.0077C26.0454 80.048 25.3643 82.6746 25.7736 85.0964C26.1615 87.5489 27.5037 89.5308 28.9071 90.9876C30.3336 92.4716 31.9261 93.4856 33.3951 94.3225C34.8718 95.1654 36.304 95.7395 37.5669 96.2158C38.0142 96.3868 38.4373 96.5272 38.8495 96.6617C39.2968 97.0221 39.7594 97.3642 40.2344 97.6574C42.589 99.0652 45.1605 99.7463 47.6969 99.9448C52.759 100.296 57.8378 99.0349 61.9301 96.222C63.9764 94.8233 65.7295 93.0093 66.9631 90.9081C68.0444 89.1186 68.6734 87.1213 68.9728 85.1179C69.425 84.446 69.7972 83.8594 70.0812 83.4046C70.564 82.592 70.8203 82.1612 70.8203 82.1612C70.8203 82.1612 70.6218 82.3814 70.2431 82.7967C70.4568 82.3417 70.6584 81.8866 70.8203 81.4192C70.7746 81.4833 70.7288 81.5476 70.689 81.6115C70.6951 81.59 70.7073 81.5597 70.7136 81.5414C70.7808 81.3274 70.8203 81.2144 70.8203 81.2144C70.8203 81.2144 70.7685 81.318 70.6644 81.5199C70.576 81.7121 70.4296 81.981 70.2125 82.2956C69.9865 82.604 69.7543 82.894 69.5071 83.1812C68.9971 83.7189 68.3069 84.2687 67.351 84.6165C65.9306 85.1357 63.906 84.9312 62.3637 83.5631C60.7879 82.247 59.8992 79.9073 59.8412 77.3358C59.8106 76.0409 59.9696 74.67 60.2931 73.2799C60.4581 72.5774 60.6535 71.8966 60.8672 71.2095C60.971 70.8643 61.13 70.4736 61.2522 70.1038L61.4476 69.5783L61.6675 69.0471C62.8342 66.1948 64.5627 63.3911 66.4992 60.5568C68.4476 57.7168 70.7322 54.9191 72.8883 51.8591C75.0505 48.8096 77.1883 45.5327 78.7029 41.8296C80.2054 38.1307 80.8684 34.0034 80.5538 30.0499ZM51.1406 78.2439C51.1743 78.1401 51.2245 78.0328 51.2658 77.9261C51.2185 78.3446 51.1866 78.769 51.1683 79.1904C51.1178 80.858 51.2936 82.6048 51.9652 84.2663C52.6279 85.9213 53.8433 87.433 55.3827 88.3615C56.9159 89.3051 58.6901 89.6964 60.3483 89.6043C61.5456 89.5528 62.6878 89.2808 63.7567 88.8715C63.2618 89.2442 62.7487 89.6135 62.1929 89.9773C60.2505 91.2233 57.7829 92.4386 55.2969 92.396C52.8157 92.3591 50.89 90.5514 50.2487 87.7022C49.5891 84.8768 50.0609 81.4993 51.1406 78.2439ZM57.5509 30.9203L57.5663 30.9386C57.5998 30.9721 57.5752 30.9478 57.5509 30.9203ZM46.2113 20.3398C48.6347 22.8945 51.3712 24.849 53.7426 27.0114C54.9397 28.0834 56.0423 29.1934 57.056 30.3387L57.4285 30.7723L57.5232 30.8822L57.5323 30.8944L57.5354 30.8976L57.5569 30.9298L57.7462 31.1756C57.9965 31.5054 58.2714 31.8582 58.4059 32.1116C58.7325 32.6248 59.1112 33.2967 59.3861 33.9503C59.9756 35.2695 60.3909 36.6959 60.6687 38.1725C60.6901 38.2795 60.6993 38.3909 60.7205 38.4979C59.9753 36.3342 58.9859 34.2727 57.7766 32.4082C55.5472 28.9405 52.5466 26.2605 49.1748 24.425C48.419 24.0463 47.6707 23.6736 46.9395 23.3088C46.7028 23.1775 46.492 23.02 46.2644 22.8827C45.9895 22.6521 45.6979 22.4292 45.4353 22.1787C45.0001 21.7573 44.5848 21.3161 44.1998 20.8472L43.6441 20.128L43.1492 19.3614C42.8453 18.8422 42.5459 18.3108 42.3139 17.7503C42.0513 17.1945 41.8635 16.6097 41.6817 16.0218C41.5138 15.4278 41.3854 14.8172 41.2879 14.1986C41.2068 13.5788 41.1443 12.9511 41.132 12.3158C41.126 11.9538 41.1474 11.5906 41.1594 11.227C41.2847 10.9461 41.422 10.6712 41.541 10.3904C41.547 10.3705 41.5549 10.3522 41.5609 10.3339C41.5669 10.5049 41.5609 10.6744 41.5732 10.8454C41.7013 12.6168 42.1671 14.4233 43.0177 16.0372C43.8627 17.6538 44.9944 19.0828 46.2113 20.3398ZM43.6932 1.31628C43.2596 2.26776 42.855 3.2433 42.5268 4.2497C42.4687 4.39014 42.4122 4.52614 42.3497 4.66057C42.3528 4.65743 42.3528 4.65299 42.3528 4.64671C42.7177 3.51216 43.1681 2.40193 43.6932 1.31628ZM30.9411 89.1893C29.8829 87.8701 29.1239 86.3003 28.9926 84.6788C28.8386 83.0293 29.312 81.3774 30.309 79.6975C31.2756 77.9996 32.4988 76.3993 33.9111 74.9242C35.3313 73.4551 36.8597 72.035 38.4936 70.7432C40.129 69.4515 41.7795 68.1901 43.3998 66.9533C45.0292 65.7348 46.611 64.5254 48.0557 63.2855C48.4284 62.974 48.7888 62.6656 49.1414 62.357C48.6878 63.1573 48.2315 63.9605 47.7625 64.7545C46.6021 66.7213 45.3454 68.6454 44.0474 70.5479C42.7462 72.4566 41.4042 74.2614 39.9872 76.167C38.5519 78.1034 37.1226 80.2928 36.1484 82.7329C35.1678 85.1519 34.5587 88.0105 35.1909 90.9178C35.4244 91.9747 35.8596 92.9946 36.423 93.92C35.8 93.5078 35.1616 93.0679 34.5143 92.5916C33.2547 91.6509 32.004 90.5025 30.9411 89.1893ZM66.0595 90.2828C64.6365 92.0536 62.8528 93.4769 60.892 94.5275C58.9313 95.5841 56.7783 96.2377 54.607 96.6041C52.431 96.9554 50.2076 96.9706 48.0881 96.6222C45.9731 96.2589 43.9286 95.5781 42.3175 94.4417C40.7083 93.3119 39.647 91.7693 39.3841 90.044C39.0773 88.3183 39.4974 86.367 40.3447 84.498C41.1921 82.6074 42.4031 80.8577 43.8308 79.0894C45.2708 77.2723 46.7368 75.3115 48.1096 73.3662C48.1216 73.3416 48.1417 73.3141 48.1601 73.2956C47.6623 74.4869 47.2057 75.69 46.8529 76.9147C45.7398 80.7873 45.3794 84.9191 46.5872 88.758C47.1903 90.6578 48.2728 92.5022 49.9113 93.7636C51.5499 95.0221 53.6267 95.4921 55.3887 95.3393C58.9742 95.0006 61.4538 93.1529 63.378 91.5525C65.3141 89.903 66.6917 88.2114 67.7697 86.7972C68.0995 86.3696 68.3864 85.9729 68.6522 85.591C68.0323 87.3049 67.1528 88.8929 66.0595 90.2828ZM61.4873 84.712C63.1306 85.903 65.0333 86.0801 66.5204 85.7137C65.821 86.135 65.0879 86.4894 64.3308 86.752C61.7653 87.6716 58.8518 87.415 57.0254 85.9519C55.1808 84.5043 54.6648 81.9938 54.9671 79.465C55.2784 76.9425 56.3169 74.4199 57.5354 71.9829C57.7462 71.6743 57.9416 71.3662 58.143 71.0513C58.0026 71.644 57.8804 72.2335 57.8009 72.8133C57.5718 74.4014 57.5077 75.9742 57.6696 77.4859C57.957 80.4853 59.3435 83.2829 61.4873 84.712Z" fill="black"/>
</g>
<defs>
<clipPath id="clip0">
<rect width="100" height="100" fill="white"/>
</clipPath>
</defs>
</svg>
